<svg xmlns="http://www.w3.org/2000/svg" xmlns:xlink="http://www.w3.org/1999/xlink" viewBox="0 0 1252.7 899.13"><defs><style>.cls-1{fill:url(#Gradient_bez_nazwy);}.cls-2{fill:url(#Gradient_bez_nazwy_4);}.cls-3{fill:#00ade5;}.cls-4{fill:none;}</style><linearGradient id="Gradient_bez_nazwy" x1="617.73" y1="262.41" x2="1041.06" y2="685.72" gradientTransform="matrix(1, 0, 0, -1, 0, 949.89)" gradientUnits="userSpaceOnUse"><stop offset="0" stop-color="#00ade5"/><stop offset="0.15" stop-color="#00aae3"/><stop offset="0.24" stop-color="#02a2de"/><stop offset="0.31" stop-color="#0494d6"/><stop offset="0.38" stop-color="#0780c9"/><stop offset="0.43" stop-color="#0c65b9"/><stop offset="0.49" stop-color="#1145a6"/><stop offset="0.5" stop-color="#123fa2"/><stop offset="0.51" stop-color="#1145a6"/><stop offset="0.56" stop-color="#0c65b9"/><stop offset="0.62" stop-color="#0780c9"/><stop offset="0.69" stop-color="#0494d6"/><stop offset="0.76" stop-color="#02a2de"/><stop offset="0.85" stop-color="#00aae3"/><stop offset="1" stop-color="#00ade5"/></linearGradient><linearGradient id="Gradient_bez_nazwy_4" x1="266.39" y1="262.65" x2="689.72" y2="685.96" xlink:href="#Gradient_bez_nazwy"/></defs><g id="Warstwa_3" data-name="Warstwa 3"><polygon class="cls-1" points="1252.7 475.82 829.39 899.13 755.87 825.6 406.08 475.82 583.13 298.77 653.68 369.32 653.85 369.48 547.5 475.82 829.39 757.71 1111.29 475.82 1108.46 473 829.39 193.93 724.55 298.77 653.85 228.06 829.39 52.51 1252.7 475.82"/><polygon class="cls-2" points="901.37 475.59 724.33 652.64 653.62 581.93 653.68 581.86 759.95 475.59 653.85 369.48 653.68 369.32 583.13 298.77 484.79 200.42 478.06 193.69 196.16 475.59 202.88 482.31 478.06 757.48 582.9 652.64 653.62 723.35 478.06 898.9 54.74 475.59 478.06 52.27 724.55 298.77 901.37 475.59"/><polygon class="cls-3" points="555.5 129.71 484.79 200.42 478.06 193.69 196.16 475.59 202.88 482.31 132.18 553.02 54.74 475.59 478.06 52.27 555.5 129.71"/><polygon class="cls-3" points="1251.14 477.38 829.39 899.13 755.87 825.6 826.58 754.89 829.39 757.71 1111.29 475.82 1108.46 473 1177.62 403.85 1251.14 477.38"/></g><polygon class="cls-4" points="629.65 162.57 610.24 181.98 532.8 104.54 109.49 527.86 186.92 605.29 162.57 629.64 0 467.07 467.08 0 629.65 162.57"/><polygon class="cls-4" points="460.83 528.09 637.65 704.91 532.8 809.75 257.63 534.58 250.91 527.86 532.8 245.96 539.53 252.69 637.88 351.04 460.83 528.09"/></svg>
